<?xml version="1.0" standalone="no"?>
<!DOCTYPE svg PUBLIC "-//W3C//DTD SVG 20010904//EN"
 "http://www.w3.org/TR/2001/REC-SVG-20010904/DTD/svg10.dtd">
<svg version="1.0" xmlns="http://www.w3.org/2000/svg"
 width="512.000000pt" height="512.000000pt" viewBox="0 0 512.000000 512.000000"
 preserveAspectRatio="xMidYMid meet">

<g transform="translate(0.000000,512.000000) scale(0.100000,-0.100000)"
fill="#000000" stroke="none">
<path d="M0 5022 c0 -108 -5 -99 73 -131 37 -15 37 -15 37 14 0 14 6 41 14 59
12 29 23 36 68 50 56 16 233 23 281 11 39 -10 36 16 -10 60 l-36 35 -214 0
-213 0 0 -98z"/>
<path d="M880 5115 c0 -2 20 -23 44 -45 l44 -41 316 -2 c174 -1 316 1 316 5 0
4 -7 26 -16 48 l-16 40 -344 0 c-189 0 -344 -2 -344 -5z"/>
<path d="M2134 5103 c4 -10 16 -31 28 -48 l20 -30 169 3 c166 3 169 3 169 -18
0 -11 -7 -32 -16 -46 -16 -23 -16 -26 5 -48 26 -28 27 -48 1 -64 -11 -7 -20
-19 -20 -27 0 -22 38 -18 52 5 10 16 24 20 65 20 28 0 55 -5 58 -10 6 -9 69
-40 82 -40 3 0 3 9 0 20 -3 11 -1 20 3 20 17 0 21 -21 8 -47 -11 -24 -20 -28
-63 -31 -28 -1 -57 -3 -65 -5 -35 -5 -141 15 -146 27 -8 21 -80 -11 -105 -46
-11 -15 -27 -28 -35 -28 -21 0 -84 -60 -84 -81 0 -24 -18 -33 -36 -18 -10 8
-14 25 -12 48 2 27 -1 36 -12 36 -10 0 -16 -12 -18 -35 -2 -19 -11 -43 -19
-52 -8 -10 -13 -24 -9 -33 7 -20 -20 -31 -39 -15 -7 6 -15 24 -17 38 -4 26 -4
26 -22 -13 -10 -22 -18 -50 -17 -63 1 -30 -23 -38 -54 -18 -13 9 -27 16 -29
16 -3 0 -8 -23 -12 -51 -7 -53 -24 -70 -49 -49 -25 21 -48 -6 -40 -47 5 -29 3
-34 -19 -43 -19 -7 -25 -17 -28 -47 -3 -36 -5 -38 -38 -39 -36 0 -37 -2 -28
-59 2 -14 -3 -21 -18 -23 -29 -4 -48 -46 -28 -62 8 -7 14 -21 14 -32 0 -17 -5
-19 -30 -13 -26 6 -30 3 -36 -19 -3 -14 -12 -26 -20 -26 -16 0 -19 -16 -4 -25
12 -8 13 -55 1 -74 -9 -15 13 -68 38 -89 14 -12 12 -13 -11 -8 -26 6 -27 5
-17 -18 8 -17 8 -29 0 -44 -15 -27 -14 -29 9 -35 16 -4 19 -11 14 -35 -7 -35
7 -48 34 -31 29 18 52 4 52 -30 0 -16 6 -31 13 -34 20 -8 36 -115 52 -356 20
-299 20 -283 -10 -275 -20 5 -25 2 -30 -19 -4 -14 -2 -34 4 -45 10 -19 7 -20
-42 -24 -34 -3 -57 0 -68 9 -22 19 -39 16 -39 -6 0 -29 20 -37 97 -36 51 0 69
-3 62 -11 -5 -6 -8 -22 -7 -35 2 -18 -7 -28 -47 -49 -42 -23 -55 -36 -80 -89
-35 -72 -52 -85 -89 -71 -17 6 -49 6 -93 -1 -37 -5 -85 -13 -106 -16 -26 -3
-37 -9 -33 -18 2 -7 -4 -15 -15 -18 -11 -3 -19 0 -19 7 0 9 -13 10 -47 5 -118
-19 -177 -39 -117 -39 l29 -1 -27 -23 c-15 -13 -46 -27 -70 -31 -24 -3 -53
-11 -66 -18 -16 -8 -31 -8 -50 -1 -35 13 -57 7 -42 -11 9 -11 4 -17 -23 -30
-52 -24 -77 -55 -66 -82 10 -26 33 -29 69 -8 14 8 31 14 37 15 17 0 44 -55 37
-73 -5 -15 -69 -30 -129 -31 -39 -1 -45 -33 -14 -75 30 -40 81 -51 112 -24 12
10 39 26 59 36 42 18 197 67 243 75 26 4 28 3 17 -10 -7 -9 -27 -18 -45 -21
-47 -6 -155 -48 -209 -80 -26 -15 -53 -27 -61 -27 -8 0 -24 -9 -37 -20 -13
-11 -29 -20 -37 -20 -7 0 -13 -5 -13 -11 0 -5 4 -7 10 -4 5 3 17 2 27 -3 14
-8 13 -12 -12 -24 l-28 -15 29 -17 c17 -10 39 -34 49 -54 18 -32 25 -37 57
-38 45 -1 54 -7 33 -24 -8 -7 -15 -21 -15 -31 0 -10 -6 -22 -14 -26 -17 -10
-30 -89 -16 -98 6 -4 17 -1 25 5 12 10 15 6 20 -17 3 -15 10 -42 15 -59 6 -17
10 -41 10 -54 0 -33 33 -140 43 -140 4 0 35 43 69 95 54 84 65 95 90 95 16 0
30 6 32 13 41 154 56 177 115 177 20 0 34 7 41 19 22 42 82 34 94 -12 4 -16
15 -26 34 -30 19 -4 33 -17 45 -43 16 -32 16 -43 6 -84 -11 -41 -10 -53 5 -84
20 -42 34 -52 49 -37 15 15 37 14 58 -5 16 -14 20 -14 43 1 21 14 31 15 57 6
42 -15 42 -14 36 11 -9 32 10 48 54 48 34 0 40 -4 45 -27 4 -14 2 -40 -4 -57
-11 -28 -10 -32 18 -54 33 -26 39 -58 13 -77 -21 -15 -10 -45 16 -45 13 0 27
-12 37 -31 16 -31 15 -32 -12 -54 -34 -27 -28 -59 10 -49 28 7 31 2 40 -48 7
-36 5 -39 -29 -55 -26 -13 -42 -14 -63 -7 -25 9 -28 15 -34 74 -4 36 -9 76
-12 90 -3 14 -11 55 -18 92 -7 36 -16 70 -21 74 -4 4 -7 16 -7 27 0 10 -5 17
-12 14 -8 -2 -12 -17 -10 -33 1 -16 3 -40 3 -54 0 -14 10 -61 21 -105 12 -44
20 -87 19 -95 -1 -8 -2 -28 -4 -44 -3 -39 -28 -45 -158 -37 l-104 6 -3 33 c-2
18 -9 32 -17 32 -16 0 -25 22 -25 60 0 39 -18 48 -26 13 -5 -17 -1 -45 9 -74
10 -26 17 -49 17 -52 0 -9 -91 -16 -262 -21 -87 -3 -165 -9 -173 -14 -24 -13
53 -70 112 -82 32 -7 568 -10 1616 -8 l1569 3 49 55 c28 32 55 74 63 100 12
39 17 45 38 42 24 -2 24 -1 26 97 3 111 -6 143 -56 201 l-31 35 -16 -22 c-9
-13 -19 -23 -24 -23 -4 0 -20 21 -36 46 -30 48 -73 84 -99 84 -8 0 -21 10 -27
22 -7 13 -23 33 -36 45 -17 16 -23 33 -23 64 0 35 -6 47 -41 82 -34 34 -39 43
-26 51 13 8 13 14 0 44 -15 37 -10 103 13 159 8 18 14 52 14 76 0 35 5 48 23
59 21 15 22 22 26 178 l3 162 -30 31 c-17 18 -32 41 -35 52 -5 19 -5 19 -12
-2 -4 -13 -11 -23 -16 -23 -13 0 -23 59 -34 204 -5 55 -4 58 16 53 31 -8 81
24 74 48 -3 11 -14 63 -25 115 -11 52 -30 136 -42 185 -20 78 -27 90 -46 93
-15 2 -33 -6 -48 -22 -21 -20 -23 -28 -15 -45 6 -11 11 -31 11 -45 0 -18 6
-26 22 -28 29 -4 35 -28 9 -35 -15 -4 -21 -13 -21 -34 0 -24 4 -28 23 -26 29
3 30 -27 0 -31 -21 -3 -22 -7 -17 -90 9 -183 13 -229 23 -306 6 -49 7 -84 1
-91 -5 -6 -12 -31 -16 -55 -4 -25 -13 -58 -21 -75 -12 -26 -13 -6 -8 160 2
105 0 240 -5 300 -17 177 -42 389 -48 405 -3 8 -11 44 -18 80 -6 36 -15 76
-20 89 -5 17 -4 22 4 17 7 -4 12 -16 12 -26 0 -21 19 -38 21 -18 3 42 -4 194
-9 203 -15 23 -30 78 -25 91 6 16 -32 110 -51 130 -7 7 -16 47 -19 90 -4 42
-12 83 -18 90 -7 9 -10 40 -7 80 3 50 9 70 23 80 17 12 18 18 7 47 -15 43 -15
76 2 106 10 18 11 33 4 60 -13 46 -4 135 22 208 28 80 111 164 193 194 58 22
60 22 93 4 74 -39 66 -131 -21 -235 -33 -40 -36 -47 -33 -98 4 -66 21 -78 38
-25 7 21 25 66 41 99 16 34 29 77 29 95 0 19 5 51 11 72 8 31 7 45 -8 75 -25
51 -73 74 -143 69 -48 -4 -58 -8 -80 -37 -14 -18 -46 -55 -72 -83 -26 -28 -53
-66 -59 -86 -7 -20 -18 -45 -25 -56 -24 -39 -46 -149 -34 -179 13 -36 13 -36
-12 -33 -20 2 -23 -2 -20 -25 1 -16 -2 -36 -7 -46 -14 -27 1 -88 22 -84 9 2
17 -2 17 -8 0 -6 -8 -10 -17 -9 -41 4 -45 0 -37 -28 4 -16 9 -57 11 -93 2 -71
16 -187 32 -265 5 -27 15 -84 21 -125 7 -41 16 -79 21 -85 5 -5 9 -23 9 -40 0
-17 4 -35 9 -40 6 -6 17 -89 26 -185 9 -96 21 -202 26 -235 10 -57 14 -86 39
-255 12 -81 9 -146 -14 -310 -8 -58 -21 -157 -30 -220 -9 -63 -21 -136 -27
-162 -6 -25 -12 -59 -14 -74 -3 -28 -36 -64 -59 -64 -25 0 -45 27 -61 84 -9
32 -28 77 -42 99 -14 22 -28 58 -31 79 -4 32 -12 44 -43 64 -43 27 -59 51 -59
89 0 43 -17 63 -59 70 -29 5 -47 16 -65 40 -32 42 -58 138 -51 185 3 20 -2 67
-13 110 -26 103 -20 233 14 311 13 31 24 63 24 70 0 8 14 41 30 73 17 32 30
67 30 78 0 10 17 36 38 56 35 34 40 46 55 127 12 71 14 114 7 200 -4 61 -6
122 -3 137 6 30 -24 165 -38 174 -9 5 -73 -12 -99 -27 -40 -24 -61 -32 -67
-25 -11 11 29 44 72 58 29 10 41 19 43 36 3 16 -2 25 -16 28 -13 4 -23 22 -32
55 -8 27 -19 49 -27 49 -7 0 -13 7 -13 15 0 31 -25 66 -58 82 -34 16 -35 16
-54 -10 -19 -26 -51 -36 -62 -18 -8 12 32 61 50 61 8 0 14 7 14 15 0 26 -42
75 -65 75 -20 0 -75 52 -75 71 0 14 -36 11 -49 -4 -6 -8 -8 -16 -5 -20 10 -10
-7 -47 -22 -47 -16 0 -18 18 -5 39 6 10 5 22 -5 35 -8 11 -14 31 -14 44 0 18
-4 23 -16 18 -9 -3 -18 -6 -20 -6 -2 0 -4 -11 -4 -24 0 -13 -7 -29 -15 -36
-20 -16 -49 -5 -41 16 4 9 2 31 -3 48 -6 17 -13 44 -16 59 -5 24 -8 27 -21 16
-10 -8 -13 -21 -9 -36 3 -15 -1 -29 -15 -43 -23 -23 -39 -26 -41 -7 -1 6 -3
19 -4 27 -1 8 -3 21 -4 28 -2 21 -20 13 -27 -13 -8 -32 -31 -52 -45 -38 -7 7
-2 20 15 41 31 36 32 49 5 57 -15 5 -18 11 -13 23 22 47 -10 183 -47 203 -10
5 -26 23 -34 39 -14 28 -14 30 6 41 31 16 136 24 152 11 10 -9 19 0 40 43 l27
55 -446 0 c-421 0 -446 -1 -440 -17z m521 -93 c21 -41 19 -59 -11 -70 -20 -8
-33 -6 -55 7 -35 21 -37 39 -7 70 29 31 54 29 73 -7z m115 -70 c0 -5 -4 -10
-10 -10 -5 0 -10 5 -10 10 0 6 5 10 10 10 6 0 10 -4 10 -10z m-47 -74 c4 -10
1 -13 -9 -9 -7 3 -14 9 -14 14 0 14 17 10 23 -5z m32 -260 c27 -17 29 -44 4
-37 -35 10 -54 6 -51 -11 4 -24 -11 -23 -33 2 -24 26 -32 25 -39 -5 -4 -14
-13 -25 -21 -25 -9 0 -20 11 -25 25 -11 30 -31 32 -48 5 -16 -26 -29 -25 -37
1 -5 15 -10 18 -18 10 -19 -19 -39 -13 -35 11 4 32 72 48 185 44 66 -2 100 -8
118 -20z m-561 -115 c-16 -16 -42 -46 -57 -65 -16 -20 -34 -36 -41 -36 -7 0
-23 -12 -37 -26 -28 -30 -74 -56 -82 -47 -11 11 -37 -19 -37 -42 0 -14 -11
-30 -27 -41 -15 -9 -35 -27 -44 -38 -29 -36 -34 -9 -8 46 27 59 105 140 164
170 22 11 51 30 65 43 28 26 98 64 119 65 7 0 1 -12 -15 -29z m524 10 c23 -5
46 -12 50 -15 12 -13 -23 -26 -54 -20 -34 6 -69 -18 -60 -42 3 -9 -2 -14 -14
-14 -14 0 -21 -9 -26 -35 -7 -37 1 -85 14 -85 10 0 50 85 54 114 4 27 25 31
33 7 3 -11 -3 -35 -15 -58 -11 -21 -20 -50 -20 -65 0 -27 -2 -28 -47 -26 l-48
3 -10 65 -11 65 -51 0 c-88 1 -75 15 27 28 8 1 16 9 18 18 4 19 -58 34 -127
30 -33 -2 -42 0 -39 11 3 8 17 12 36 10 18 -2 40 1 49 7 21 12 180 14 241 2z
m577 -81 c-18 -20 -45 -27 -45 -12 0 4 10 23 21 42 21 34 22 35 32 12 8 -17 6
-26 -8 -42z m-177 7 c4 -19 -6 -21 -27 -8 -16 10 -5 34 12 28 7 -2 13 -11 15
-20z m242 -17 c0 -5 -4 -10 -10 -10 -5 0 -10 5 -10 10 0 6 5 10 10 10 6 0 10
-4 10 -10z m-117 -61 c56 -46 47 -66 -10 -23 -27 20 -49 40 -51 45 -8 19 25 7
61 -22z m-712 -41 c21 -41 15 -66 -13 -55 -16 6 -42 83 -33 97 10 15 23 3 46
-42z m219 -34 c-7 -19 -10 -37 -7 -40 2 -3 21 3 41 12 52 25 65 6 20 -30 l-35
-28 -23 25 c-12 13 -28 26 -36 29 -10 3 -11 8 0 28 19 37 44 63 48 51 2 -6 -2
-27 -8 -47z m-286 0 l28 -36 -31 -32 c-46 -48 -39 -67 9 -23 74 66 139 77 214
33 36 -21 46 -33 52 -62 16 -85 -33 -146 -88 -110 -20 13 -31 14 -58 5 -31
-11 -32 -13 -15 -26 11 -7 31 -13 46 -13 18 0 28 -6 32 -19 2 -10 17 -21 32
-25 23 -6 33 -1 61 29 l33 36 33 -23 c18 -13 36 -27 40 -33 23 -30 -8 -34 -45
-5 -27 22 -47 26 -47 10 0 -17 75 -120 88 -120 7 0 15 -7 18 -15 4 -8 16 -15
28 -15 33 0 141 -47 141 -62 0 -20 -33 -21 -52 -3 -12 13 -26 15 -54 11 -32
-5 -42 -2 -64 20 -17 17 -32 23 -45 19 -34 -11 -44 5 -19 31 12 13 17 24 11
24 -7 0 -30 18 -51 41 -36 36 -42 39 -61 27 -17 -11 -25 -10 -51 5 -41 23 -69
22 -69 -2 0 -14 5 -18 20 -14 22 6 61 -31 93 -85 13 -24 15 -36 7 -57 -15 -39
-12 -55 9 -55 25 0 37 -18 22 -33 -8 -8 -18 -7 -36 3 -23 12 -27 11 -49 -13
-28 -30 -43 -33 -70 -12 -11 9 -41 15 -68 15 -53 0 -62 14 -23 32 37 17 28 43
-15 44 -54 2 -54 3 -35 24 11 13 25 18 37 14 10 -3 18 0 18 6 0 7 -9 14 -20
17 -16 4 -18 9 -9 24 13 25 4 39 -27 39 -31 0 -30 9 4 36 35 29 21 48 -25 35
-38 -11 -48 -4 -27 20 17 19 11 39 -12 39 -20 0 -18 9 8 30 l22 18 -34 7 c-34
7 -80 46 -80 66 0 14 16 11 30 -6 14 -17 48 -19 70 -5 13 9 13 11 0 20 -8 5
-21 10 -29 10 -8 0 -22 7 -32 16 -12 11 -23 13 -36 6 -10 -5 -43 -12 -74 -15
-67 -6 -113 -33 -184 -108 -62 -65 -73 -47 -21 34 20 31 36 63 36 71 0 19 63
70 118 97 l45 20 26 -25 c20 -19 38 -26 68 -26 23 0 45 5 48 10 4 6 21 8 42 4
l36 -7 -6 37 c-3 20 -3 36 1 36 4 0 20 -16 36 -36z m981 0 c0 -24 -5 -30 -27
-32 -32 -4 -33 -1 -12 39 18 37 39 33 39 -7z m-479 -60 c53 -18 74 -31 74 -46
0 -17 -31 -20 -48 -6 -27 24 -89 29 -128 11 -38 -18 -44 -33 -15 -33 35 0 51
-12 51 -36 0 -25 -15 -30 -39 -15 -15 10 -51 3 -51 -10 0 -5 8 -9 18 -9 23 0
64 -29 57 -40 -3 -5 -16 -5 -31 0 -14 6 -35 10 -47 10 -21 0 -23 4 -23 75 0
61 3 75 16 75 9 0 25 6 36 14 11 8 31 16 44 19 14 2 28 5 31 6 3 0 28 -6 55
-15z m335 -46 c69 -110 90 -163 95 -241 5 -63 3 -75 -11 -81 -28 -11 -53 12
-86 80 -23 45 -44 73 -68 89 -36 23 -81 72 -81 88 0 5 -11 6 -24 3 -42 -10
-39 12 11 64 42 45 52 50 89 50 40 0 44 -3 75 -52z m39 42 c0 -5 -2 -10 -4
-10 -3 0 -8 5 -11 10 -3 6 -1 10 4 10 6 0 11 -4 11 -10z m160 -35 c0 -21 -49
-40 -64 -25 -8 8 -6 15 8 26 26 18 56 18 56 -1z m-505 -53 c0 -18 -20 -15 -23
4 -3 10 1 15 10 12 7 -3 13 -10 13 -16z m80 -22 c0 -7 -6 -15 -12 -17 -8 -3
-13 4 -13 17 0 13 5 20 13 18 6 -3 12 -11 12 -18z m-65 -50 c0 -5 -13 -10 -30
-10 -16 0 -30 5 -30 10 0 6 14 10 30 10 17 0 30 -4 30 -10z m-1302 -57 c2 -8
-6 -13 -22 -13 -17 0 -26 5 -26 16 0 19 41 16 48 -3z m612 2 c0 -9 -9 -15 -21
-15 -18 0 -19 2 -9 15 7 8 16 15 21 15 5 0 9 -7 9 -15z m620 -16 c0 -5 -9 -9
-20 -9 -22 0 -27 16 -7 23 15 5 27 -1 27 -14z m-717 -11 c-18 -13 -33 -30 -33
-38 0 -26 -21 -40 -42 -29 -20 11 -24 54 -6 65 12 8 68 21 98 23 8 0 0 -9 -17
-21z m1317 7 c0 -9 -9 -15 -21 -15 -18 0 -19 2 -9 15 7 8 16 15 21 15 5 0 9
-7 9 -15z m75 5 c-3 -5 -13 -10 -21 -10 -8 0 -12 5 -9 10 3 6 13 10 21 10 8 0
12 -4 9 -10z m-525 -48 c0 -13 -12 -22 -22 -16 -10 6 -1 24 13 24 5 0 9 -4 9
-8z m-812 -19 c-4 -23 -58 -31 -58 -9 0 13 11 18 53 25 5 0 7 -7 5 -16z m462
-40 c0 -6 3 -18 6 -27 4 -11 1 -16 -11 -16 -11 0 -15 5 -11 15 4 11 -3 19 -19
25 -27 10 -28 11 -19 34 5 14 9 14 30 -2 13 -9 24 -22 24 -29z m-1040 21 c0
-10 -7 -14 -22 -12 -32 5 -35 28 -4 28 17 0 26 -5 26 -16z m1850 -13 c0 -5 -7
-11 -15 -15 -15 -5 -20 5 -8 17 9 10 23 9 23 -2z m70 0 c0 -5 -7 -12 -16 -15
-22 -9 -24 -8 -24 9 0 8 9 15 20 15 11 0 20 -4 20 -9z m-1222 -43 c2 -12 -3
-18 -16 -18 -11 0 -36 -11 -57 -25 -28 -20 -40 -23 -51 -14 -17 14 -71 -8 -77
-33 -5 -17 -41 -15 -53 4 -8 13 15 38 35 38 10 0 28 12 42 26 20 22 30 25 62
20 29 -5 39 -3 44 9 8 22 67 16 71 -7z m1152 -37 c0 -11 -31 -24 -39 -16 -3 3
1 10 9 15 19 12 30 12 30 1z m-790 -17 c0 -17 -22 -14 -28 4 -2 7 3 12 12 12
9 0 16 -7 16 -16z m90 -39 c0 -8 -6 -15 -14 -15 -17 0 -28 14 -19 24 12 12 33
6 33 -9z m-1105 -14 c3 -5 1 -12 -5 -16 -5 -3 -10 1 -10 9 0 18 6 21 15 7z
m331 -28 c-10 -10 -19 5 -10 18 6 11 8 11 12 0 2 -7 1 -15 -2 -18z m363 8 c30
-19 2 -37 -83 -54 -47 -9 -107 -26 -132 -37 -36 -17 -49 -19 -60 -9 -21 17
-17 28 14 40 15 6 38 16 52 22 107 46 177 58 209 38z m451 -6 c7 -8 30 -20 51
-27 22 -6 44 -17 50 -25 6 -7 18 -13 25 -13 8 0 14 -9 14 -20 0 -21 -19 -27
-35 -11 -17 14 -107 42 -169 51 -70 11 -90 25 -62 46 26 19 110 18 126 -1z
m250 2 c0 -8 -3 -17 -7 -20 -9 -9 -34 13 -27 24 8 14 34 11 34 -4z m-653 -85
c7 -4 16 -27 22 -51 13 -57 21 -63 21 -14 0 45 11 58 55 66 34 6 65 -7 65 -28
0 -22 18 -18 25 4 9 29 31 32 125 17 82 -13 85 -14 126 -61 31 -36 47 -68 63
-125 20 -69 29 -84 81 -135 69 -68 80 -103 80 -243 0 -132 -42 -314 -78 -336
-5 -3 -15 -26 -22 -50 -7 -27 -22 -52 -36 -61 -13 -8 -24 -20 -24 -26 0 -6
-22 -32 -49 -58 -27 -25 -53 -55 -59 -66 -6 -12 -23 -27 -39 -34 -15 -8 -45
-22 -66 -33 -49 -26 -202 -39 -299 -27 -52 6 -87 18 -120 38 -25 16 -56 32
-67 36 -12 3 -30 23 -40 43 -11 20 -38 57 -60 82 -23 26 -45 62 -51 85 -6 22
-22 61 -36 87 -32 61 -68 311 -58 403 9 80 17 98 69 159 32 36 52 71 68 121
12 39 36 93 54 122 29 45 39 53 85 66 98 28 143 33 165 19z m-419 -124 c-2
-13 -11 -24 -21 -26 -22 -4 -35 27 -16 39 25 16 41 10 37 -13z m1092 2 c0 -21
-33 -29 -45 -10 -9 15 4 30 26 30 12 0 19 -7 19 -20z m-1202 -367 c2 -7 -5
-16 -15 -20 -10 -3 -26 -13 -35 -21 -17 -14 -18 -13 -18 11 0 39 56 63 68 30z
m1330 0 c2 -9 -7 -13 -28 -13 -28 0 -31 2 -20 15 15 18 41 16 48 -2z m-38
-139 c0 -8 -4 -12 -10 -9 -5 3 -10 10 -10 16 0 5 5 9 10 9 6 0 10 -7 10 -16z
m-1293 -16 c-3 -8 -6 -5 -6 6 -1 11 2 17 5 13 3 -3 4 -12 1 -19z m-107 -99 c0
-5 -7 -9 -15 -9 -15 0 -20 12 -9 23 8 8 24 -1 24 -14z m1310 -134 c0 -8 -9
-15 -20 -15 -20 0 -26 11 -13 23 12 13 33 7 33 -8z m-1090 -46 c0 -24 -23 -21
-28 4 -2 10 3 17 12 17 10 0 16 -9 16 -21z m1090 -129 c34 -18 41 -44 23 -89
-19 -50 -47 -54 -85 -13 -40 43 -41 58 -7 87 34 28 42 30 69 15z m-1042 -90
c2 -29 -2 -38 -28 -55 -44 -29 -82 -17 -101 33 -11 29 10 68 44 82 36 14 81
-18 85 -60z m-793 0 c20 0 19 -34 -1 -51 -13 -11 -17 -10 -25 4 -6 9 -19 17
-29 17 -20 0 -25 15 -14 45 6 14 9 14 30 0 13 -8 30 -15 39 -15z m918 -80 c19
-16 39 -30 45 -30 6 0 35 -19 64 -42 111 -90 182 -111 362 -111 143 1 191 5
229 21 34 14 47 9 47 -20 0 -11 8 -22 20 -25 11 -3 20 -7 20 -10 0 -2 -9 -21
-20 -43 -11 -22 -20 -46 -20 -54 0 -8 -29 -40 -65 -71 -70 -61 -80 -79 -40
-69 28 7 33 -7 9 -27 -12 -10 -20 -10 -35 -1 -26 17 -49 15 -26 -2 9 -7 17
-18 17 -25 0 -6 4 -11 9 -11 20 0 71 -53 71 -73 -1 -20 -2 -20 -16 6 -17 32
-31 33 -62 7 l-24 -20 21 -34 c15 -24 20 -43 15 -61 l-6 -26 -23 21 c-19 18
-24 19 -34 6 -9 -11 -17 -11 -36 -2 -21 9 -24 16 -19 44 5 24 3 32 -9 32 -23
0 -40 -27 -33 -53 4 -16 -3 -36 -20 -61 -32 -46 -24 -59 14 -23 34 32 48 34
62 6 10 -18 17 -20 52 -14 36 6 43 4 64 -21 23 -28 24 -29 39 -9 20 26 14 39
-18 43 -30 4 -35 17 -11 26 26 10 44 7 44 -8 0 -8 10 -18 21 -21 24 -8 39 8
39 43 0 20 2 21 22 11 17 -9 24 -9 33 5 7 9 18 16 25 16 21 0 2 -116 -28 -180
-20 -40 -27 -69 -26 -107 1 -40 -2 -50 -12 -46 -10 4 -14 -4 -14 -27 0 -17 -4
-29 -8 -26 -4 2 -14 0 -22 -5 -12 -7 -12 -11 -3 -17 9 -6 10 -17 4 -38 -18
-60 -42 -104 -56 -104 -7 0 -16 -4 -19 -9 -11 -18 6 -41 30 -41 13 0 24 -4 24
-10 0 -13 -37 -13 -45 0 -4 6 -10 8 -14 5 -18 -10 -203 -16 -214 -6 -9 6 -27
7 -56 0 -61 -14 -113 5 -105 38 4 13 2 23 -4 23 -6 0 -33 18 -61 40 -50 40
-72 39 -51 -1 7 -12 18 -18 26 -15 16 6 54 -47 54 -75 0 -14 -11 -17 -62 -17
-35 0 -79 7 -99 15 -33 13 -40 13 -61 -1 -14 -9 -28 -12 -37 -7 -19 12 -4 31
25 31 15 0 24 6 24 15 0 23 -27 29 -45 11 -17 -17 -37 -21 -48 -9 -11 10 13
33 34 33 23 0 26 42 4 60 -9 8 -12 22 -8 42 4 22 3 29 -5 24 -7 -4 -17 -4 -23
0 -8 4 -7 9 2 15 12 7 11 17 -4 56 -10 26 -22 63 -27 81 -4 19 -15 41 -24 51
-29 31 -46 90 -46 153 l1 63 26 -50 c24 -46 26 -48 34 -27 11 29 27 28 39 -3
11 -30 35 -32 52 -5 7 11 23 20 35 20 19 0 23 6 23 28 0 22 -7 32 -27 41 -22
10 -24 14 -12 22 7 5 23 9 35 9 11 0 29 6 39 14 19 14 19 15 1 35 -11 12 -24
21 -31 21 -7 0 -31 14 -53 30 -23 17 -46 30 -52 30 -10 0 -50 58 -50 72 0 4
10 10 21 13 19 6 20 9 6 22 -17 17 -37 10 -37 -13 0 -20 -18 -17 -30 5 -14 27
-13 31 10 31 11 0 20 6 20 14 0 8 3 21 6 30 5 12 0 16 -19 16 -14 0 -29 -4
-32 -10 -9 -14 -35 -12 -35 3 0 7 15 17 33 22 32 10 32 10 29 67 -1 35 6 89
19 135 34 130 59 149 122 93z m-1083 10 c0 -5 -7 -10 -15 -10 -8 0 -15 5 -15
10 0 6 7 10 15 10 8 0 15 -4 15 -10z m147 -17 c3 -8 0 -26 -8 -39 -10 -20 -19
-25 -40 -20 -14 3 -31 0 -38 -7 -16 -16 -56 25 -48 48 15 37 121 52 134 18z
m87 -2 c3 -4 -1 -16 -8 -27 -12 -15 -16 -16 -30 -5 -12 10 -14 17 -5 27 13 16
35 18 43 5z m573 -17 c7 -15 9 -32 6 -38 -4 -6 -6 -21 -5 -33 2 -11 -1 -24 -6
-27 -6 -3 -8 -15 -5 -26 3 -12 -1 -22 -11 -26 -9 -3 -16 -17 -16 -29 0 -13 -5
-27 -10 -30 -7 -4 -7 -13 -1 -24 11 -20 -7 -93 -36 -142 -14 -24 -15 -33 -5
-49 7 -12 8 -21 2 -25 -6 -3 -10 -15 -10 -26 0 -28 -23 -33 -75 -19 -33 9 -48
10 -58 2 -18 -15 -86 -3 -95 17 -10 21 -7 62 5 86 6 11 14 50 18 87 6 60 13
75 67 152 65 94 115 142 169 161 49 18 53 18 66 -11z m1346 -6 c36 -18 52 -32
67 -65 11 -24 27 -43 35 -43 10 0 15 -10 15 -29 0 -20 9 -36 26 -50 21 -16 25
-26 20 -49 -5 -18 0 -44 14 -74 12 -29 21 -72 22 -119 l3 -74 -40 2 c-22 2
-51 3 -65 2 -71 -1 -122 0 -126 4 -2 2 -8 50 -13 108 -12 133 -23 188 -43 219
-14 22 -38 111 -38 141 0 5 11 14 25 19 14 5 25 14 25 20 0 16 21 12 73 -12z
m-2353 -8 c0 -5 -7 -10 -16 -10 -8 0 -12 5 -9 10 3 6 10 10 16 10 5 0 9 -4 9
-10z m165 -10 c17 -19 17 -21 -1 -41 -12 -13 -26 -18 -40 -15 -14 4 -24 1 -28
-10 -4 -9 -15 -14 -28 -12 -33 4 -35 42 -4 73 31 31 76 33 101 5z m2999 -99
c3 -5 -3 -11 -15 -14 -16 -4 -18 -3 -8 9 13 16 16 17 23 5z m56 -7 c0 -8 -4
-12 -10 -9 -5 3 -10 10 -10 16 0 5 5 9 10 9 6 0 10 -7 10 -16z m-2855 -73 c-6
-5 -28 -14 -50 -21 -22 -7 -60 -23 -85 -36 -64 -33 -209 -84 -238 -84 -24 0
-25 1 -7 20 10 11 27 20 38 20 11 0 58 17 106 39 47 21 106 42 131 46 25 4 52
11 60 16 20 11 57 12 45 0z m2835 -50 c0 -32 -6 -55 -16 -66 -9 -9 -18 -15
-19 -13 -2 2 -1 31 2 66 4 43 10 62 19 62 10 0 14 -14 14 -49z m-575 30 c3 -5
20 -13 38 -16 32 -7 128 -85 104 -85 -21 1 -181 85 -185 98 -4 14 34 17 43 3z
m-1975 -24 c0 -7 -16 -32 -36 -55 -29 -34 -42 -42 -69 -42 -19 0 -37 -4 -40
-10 -10 -15 -45 -12 -51 5 -10 24 13 42 81 65 35 12 69 28 75 36 15 18 40 18
40 1z m1514 -52 c-4 -8 -8 -15 -10 -15 -2 0 -4 7 -4 15 0 8 4 15 10 15 5 0 7
-7 4 -15z m-1734 -30 c0 -8 -15 -21 -34 -29 -18 -8 -37 -19 -41 -25 -5 -9 -10
-9 -20 -1 -17 14 -47 0 -69 -32 l-16 -22 0 23 c0 34 28 61 62 61 17 0 41 9 55
20 30 24 63 26 63 5z m2640 11 c0 -3 -4 -8 -10 -11 -5 -3 -10 -1 -10 4 0 6 5
11 10 11 6 0 10 -2 10 -4z m-312 -42 c38 -7 56 -35 47 -71 -4 -19 -9 -22 -19
-14 -10 8 -20 6 -39 -9 -33 -26 -37 -26 -70 10 -16 17 -32 30 -37 30 -10 0
-24 56 -16 68 5 8 48 3 134 -14z m-2160 -51 c5 -53 -10 -70 -80 -82 -68 -12
-78 -7 -78 40 0 42 58 79 120 76 32 -2 35 -5 38 -34z m1482 9 c0 -5 -6 -17
-14 -28 -12 -15 -17 -16 -27 -7 -10 10 -9 15 1 28 13 16 40 21 40 7z m-53 -68
c4 -11 -38 -34 -62 -34 -15 0 -21 31 -8 44 11 10 66 3 70 -10z m1153 6 c0 -5
-4 -10 -10 -10 -5 0 -10 5 -10 10 0 6 5 10 10 10 6 0 10 -4 10 -10z m-2283
-116 c46 -30 54 -40 51 -62 -2 -22 -7 -27 -29 -24 -15 1 -32 -4 -39 -13 -9
-11 -17 -12 -31 -4 -26 13 -24 26 6 33 18 5 25 13 25 31 0 27 -8 29 -60 19
-21 -5 -35 -15 -41 -30 -7 -20 -16 -24 -49 -24 -38 0 -40 2 -40 29 0 37 23 61
58 62 15 0 36 4 47 9 34 14 46 11 102 -26z m333 26 c12 -8 11 -10 -7 -10 -12
0 -25 5 -28 10 -8 13 15 13 35 0z m1230 -39 c0 -11 5 -23 10 -26 17 -10 11
-25 -9 -25 -12 0 -21 9 -25 25 -5 21 -12 25 -44 25 -27 0 -33 3 -22 10 8 5 32
10 53 10 30 0 37 -4 37 -19z m70 -1 c0 -5 -2 -10 -4 -10 -3 0 -8 5 -11 10 -3
6 -1 10 4 10 6 0 11 -4 11 -10z m-4 -51 c3 -6 1 -16 -5 -22 -9 -9 -14 -8 -21
3 -9 15 -4 30 10 30 5 0 12 -5 16 -11z m-122 -30 c-8 -14 -34 -11 -34 4 0 8 3
17 7 20 9 9 34 -13 27 -24z m536 -1 c-1 -14 -24 -48 -32 -48 -8 0 -18 42 -12
52 8 13 44 9 44 -4z m-2046 -47 c6 -10 -22 -37 -29 -29 -8 7 5 38 15 38 5 0
11 -4 14 -9z m1496 -1 c0 -5 -2 -10 -4 -10 -3 0 -8 5 -11 10 -3 6 -1 10 4 10
6 0 11 -4 11 -10z m-1604 -11 c3 -6 1 -16 -5 -22 -9 -9 -14 -8 -21 3 -5 8 -10
18 -10 23 0 11 28 8 36 -4z m1564 -10 c0 -5 -4 -9 -10 -9 -5 0 -10 7 -10 16 0
8 5 12 10 9 6 -3 10 -10 10 -16z m-220 -75 c0 -8 -5 -12 -10 -9 -6 4 -8 11 -5
16 9 14 15 11 15 -7z m173 -54 c-3 -67 -16 -135 -28 -150 -13 -14 -32 -88 -40
-155 -7 -51 -18 -90 -27 -96 -5 -3 -32 -5 -61 -4 -45 1 -52 5 -55 24 -5 33 16
53 48 46 24 -5 28 -2 32 20 4 19 0 30 -13 38 -27 17 -24 35 12 69 26 26 30 35
25 63 -4 20 -2 36 4 40 6 4 8 15 5 24 -3 10 1 24 10 31 8 7 15 27 15 45 0 35
13 45 55 42 16 -2 20 -9 18 -37z m353 -70 c28 -14 67 -41 86 -60 20 -19 54
-48 76 -65 49 -36 52 -50 13 -58 -46 -10 -84 7 -201 90 -30 21 -147 63 -175
62 -17 0 -16 -2 5 -11 14 -6 34 -14 45 -19 11 -5 32 -13 48 -19 34 -12 37 -53
5 -81 -20 -16 -20 -18 -6 -19 17 0 118 -31 163 -50 11 -4 42 -12 69 -16 52 -9
80 -34 60 -54 -6 -6 -51 -12 -100 -13 -68 -1 -95 3 -115 16 -31 20 -119 35
-119 19 0 -6 16 -16 36 -22 28 -10 33 -15 22 -21 -22 -12 -267 -14 -279 -2 -6
6 -6 26 1 59 6 27 18 105 26 173 12 102 18 129 36 148 27 29 55 29 86 1 l24
-23 20 27 c17 25 24 27 58 22 26 -4 40 -2 46 7 6 10 11 2 14 -26 5 -37 9 -42
56 -65z m-1516 86 c0 -3 -4 -8 -10 -11 -5 -3 -10 -1 -10 4 0 6 5 11 10 11 6 0
10 -2 10 -4z m2221 -46 c23 0 68 -27 86 -51 8 -11 21 -15 33 -12 14 4 20 0 20
-10 0 -9 7 -20 16 -25 13 -7 15 -19 11 -53 -12 -96 -17 -108 -46 -108 -14 0
-43 -3 -63 -7 -22 -3 -38 -2 -38 3 0 13 39 32 75 35 23 2 31 9 33 27 5 29 -12
41 -59 41 -25 0 -39 5 -43 16 -4 9 -13 14 -21 10 -9 -3 -21 4 -30 18 -10 16
-22 22 -34 19 -36 -9 -38 58 -2 120 l15 27 14 -25 c7 -14 21 -25 33 -25z
m-1201 0 c0 -5 -5 -10 -11 -10 -5 0 -7 5 -4 10 3 6 8 10 11 10 2 0 4 -4 4 -10z
m-20 -50 c0 -5 -4 -10 -9 -10 -6 0 -13 5 -16 10 -3 6 1 10 9 10 9 0 16 -4 16
-10z m-1005 -50 c-3 -5 -10 -10 -16 -10 -5 0 -9 5 -9 10 0 6 7 10 16 10 8 0
12 -4 9 -10z m982 -26 c-9 -9 -28 6 -21 18 4 6 10 6 17 -1 6 -6 8 -13 4 -17z
m-959 -21 c-4 -22 -22 -20 -26 1 -2 10 3 16 13 16 10 0 15 -7 13 -17z m22 -47
c0 -8 9 -18 20 -21 24 -8 26 -23 4 -32 -11 -4 -23 2 -35 18 -23 29 -24 49 -4
49 8 0 15 -6 15 -14z m895 -7 c10 -15 -1 -23 -20 -15 -9 3 -13 10 -10 16 8 13
22 13 30 -1z m-27 -63 c3 -13 -1 -17 -14 -14 -11 2 -20 11 -22 22 -3 13 1 17
14 14 11 -2 20 -11 22 -22z m-30 -59 c2 -11 -3 -17 -16 -17 -20 0 -36 23 -24
34 11 12 37 1 40 -17z"/>
<path d="M2575 4441 c-3 -5 -1 -12 5 -16 5 -3 10 1 10 9 0 18 -6 21 -15 7z"/>
<path d="M2365 4200 c3 -5 13 -10 21 -10 8 0 12 5 9 10 -3 6 -13 10 -21 10 -8
0 -12 -4 -9 -10z"/>
<path d="M2632 4168 c-20 -20 -14 -35 24 -59 35 -22 36 -22 55 -2 24 23 17 46
-17 62 -32 14 -47 14 -62 -1z"/>
<path d="M2512 4158 c-26 -26 -2 -68 37 -68 14 0 43 58 36 70 -9 14 -59 12
-73 -2z"/>
<path d="M2490 3990 c0 -5 4 -10 9 -10 6 0 13 5 16 10 3 6 -1 10 -9 10 -9 0
-16 -4 -16 -10z"/>
<path d="M2545 3980 c-3 -5 -1 -10 4 -10 6 0 11 5 11 10 0 6 -2 10 -4 10 -3 0
-8 -4 -11 -10z"/>
<path d="M2482 3948 c-18 -18 -15 -25 19 -42 52 -26 68 -1 21 33 -22 15 -32
17 -40 9z"/>
<path d="M2482 3858 c6 -18 28 -21 28 -4 0 9 -7 16 -16 16 -9 0 -14 -5 -12
-12z"/>
<path d="M2577 3812 c-29 -32 -12 -92 26 -92 37 0 51 82 18 100 -25 13 -25 13
-44 -8z"/>
<path d="M2828 3320 c-45 -8 -102 -35 -140 -68 -21 -17 -53 -115 -44 -137 4
-12 9 -13 24 -4 14 9 29 4 79 -25 34 -20 70 -36 81 -36 11 0 35 -7 55 -15 41
-17 73 -10 132 28 91 60 88 55 80 106 -7 52 -43 112 -80 137 -29 19 -122 26
-187 14z m122 -50 c19 0 100 -51 100 -62 0 -12 -24 -9 -57 7 -17 8 -65 18
-107 22 -42 3 -73 9 -69 14 13 13 77 28 98 23 11 -2 27 -4 35 -4z m-120 -182
c0 -10 -40 -1 -54 12 -5 5 -6 16 -2 26 6 15 9 15 31 -6 14 -13 25 -28 25 -32z
m132 10 c-6 -6 -16 -8 -22 -6 -9 3 -7 9 6 22 13 13 19 15 22 6 2 -6 0 -16 -6
-22z"/>
<path d="M2220 3311 c-51 -10 -78 -28 -100 -64 -28 -45 -25 -52 13 -24 46 34
92 47 143 40 49 -6 60 -23 16 -23 -15 0 -70 -20 -121 -45 -85 -42 -92 -48 -89
-73 3 -23 13 -31 73 -56 99 -40 169 -40 251 2 40 20 63 39 67 53 4 16 11 20
26 16 25 -6 26 3 5 63 -22 62 -28 68 -103 89 -82 24 -136 30 -181 22z m27
-196 c3 -9 3 -19 -1 -22 -7 -7 -36 16 -36 28 0 15 30 10 37 -6z m153 0 c0 -16
-27 -32 -37 -21 -7 7 16 36 28 36 5 0 9 -7 9 -15z"/>
<path d="M2542 3288 c2 -6 16 -21 31 -32 l27 -20 25 24 c32 30 32 45 0 24 -24
-16 -65 -12 -65 7 0 5 -5 9 -11 9 -6 0 -9 -5 -7 -12z"/>
<path d="M2641 2784 c-15 -11 -34 -14 -57 -10 -107 19 -107 19 -102 5 2 -7 20
-17 39 -22 19 -5 42 -15 51 -24 12 -11 21 -12 37 -4 11 6 36 11 56 11 47 0 75
15 75 41 0 17 -3 18 -20 9 -13 -7 -26 -7 -38 -1 -14 7 -25 6 -41 -5z"/>
<path d="M2782 2708 c-7 -7 -43 -14 -80 -15 -188 -6 -290 -5 -316 2 -19 5 -31
4 -36 -5 -14 -23 0 -37 43 -43 25 -4 49 -14 59 -26 9 -12 35 -37 58 -56 38
-32 44 -34 93 -28 33 4 60 14 74 27 13 12 35 33 50 47 16 15 47 36 71 48 45
23 49 30 30 49 -15 15 -31 15 -46 0z m-217 -97 c10 -18 -17 -23 -33 -7 -15 15
-15 16 5 16 12 0 24 -4 28 -9z"/>
<path d="M2190 1950 c0 -28 3 -30 37 -30 l37 0 -29 30 c-16 17 -32 30 -37 30
-4 0 -8 -13 -8 -30z"/>
<path d="M2264 1899 c-10 -17 8 -29 43 -29 29 0 33 2 24 14 -14 17 -59 27 -67
15z"/>
<path d="M2400 1780 c0 -6 7 -22 16 -35 9 -14 12 -26 8 -26 -46 -6 -95 -23
-105 -35 -6 -8 -18 -14 -25 -14 -8 0 -14 -7 -14 -15 0 -8 -12 -18 -26 -21 -23
-6 -25 -10 -19 -44 4 -22 2 -41 -4 -44 -11 -7 21 -46 38 -46 5 0 14 -7 21 -15
18 -22 50 -19 50 5 0 11 9 29 21 41 14 14 19 28 15 45 -8 30 -30 31 -75 3 -40
-24 -48 -19 -32 19 10 24 22 31 66 42 30 7 56 19 59 26 9 22 33 16 54 -13 11
-16 24 -25 28 -21 4 4 1 14 -5 22 -7 8 -13 34 -15 58 -2 23 -7 51 -11 61 -8
18 -45 24 -45 7z"/>
<path d="M2537 1743 c-3 -5 -8 -22 -11 -40 -7 -28 -5 -32 22 -37 33 -8 80 7
88 28 11 30 -15 56 -56 56 -21 0 -41 -3 -43 -7z"/>
<path d="M2525 1603 c15 -16 95 -27 95 -14 0 6 -15 11 -34 11 -19 0 -43 3 -53
6 -12 5 -15 4 -8 -3z"/>
<path d="M2430 1594 c0 -5 12 -21 27 -36 26 -27 63 -38 63 -18 0 6 -5 10 -12
10 -6 0 -26 11 -45 26 -18 14 -33 22 -33 18z"/>
<path d="M2690 1579 c-14 -11 -36 -25 -50 -31 -37 -16 -5 -23 33 -7 31 13 56
36 57 52 0 12 -14 8 -40 -14z"/>
<path d="M2775 1571 c-13 -27 -14 -31 -1 -31 15 0 43 -77 32 -88 -4 -3 -20 9
-38 27 -25 26 -37 31 -57 26 -41 -10 -47 -23 -17 -35 23 -8 25 -13 16 -29 -5
-11 -10 -29 -10 -40 0 -24 -67 -77 -110 -86 -20 -4 -43 1 -79 20 -46 23 -51
29 -51 58 0 18 -5 38 -10 43 -12 12 -3 44 12 44 6 0 5 6 -2 15 -19 23 -44 18
-88 -17 -45 -36 -53 -58 -22 -58 13 0 22 -9 26 -27 17 -79 44 -110 44 -50 l0
32 50 -53 c28 -30 50 -62 50 -72 0 -30 19 -34 30 -6 5 14 14 26 20 26 6 0 15
-12 20 -26 12 -31 32 -22 24 12 -5 18 -2 24 11 24 9 0 31 12 48 26 18 15 38
23 49 21 18 -5 35 19 51 74 3 9 18 19 34 22 17 3 35 16 43 32 10 19 20 25 35
21 15 -3 27 6 50 37 40 56 40 55 10 50 -14 -3 -25 -12 -25 -19 0 -22 -13 -17
-40 15 -14 16 -39 32 -57 36 -28 6 -34 3 -48 -24z"/>
<path d="M2950 1484 c0 -8 5 -12 10 -9 6 3 10 10 10 16 0 5 -4 9 -10 9 -5 0
-10 -7 -10 -16z"/>
<path d="M2538 1429 c-12 -7 -18 -23 -18 -49 0 -33 4 -41 23 -45 30 -7 78 7
91 28 17 27 -12 71 -49 74 -17 2 -38 -2 -47 -8z"/>
<path d="M2905 1400 c-8 -13 4 -32 16 -25 12 8 12 35 0 35 -6 0 -13 -4 -16
-10z"/>
<path d="M2795 1304 c-20 -38 -78 -94 -98 -94 -7 0 -25 -12 -41 -26 -26 -23
-28 -27 -13 -42 15 -14 21 -11 79 44 74 70 129 154 100 154 -4 0 -16 -16 -27
-36z"/>
<path d="M2330 1291 c0 -21 13 -41 26 -41 17 0 18 22 2 38 -14 14 -28 16 -28
3z"/>
<path d="M2547 1183 c-14 -13 -7 -32 14 -38 24 -8 41 9 32 32 -5 14 -35 18
-46 6z"/>
<path d="M3547 5073 c-15 -50 -12 -72 6 -54 7 7 103 11 293 11 246 0 283 -2
286 -15 2 -11 22 3 63 45 l59 60 -347 0 -346 0 -14 -47z"/>
<path d="M4670 5079 c-45 -50 -50 -64 -19 -56 13 4 124 7 247 7 l222 0 0 45 0
45 -207 -1 -208 -1 -35 -39z"/>
<path d="M4406 4734 c-10 -26 -7 -51 9 -64 10 -8 15 -31 15 -71 0 -33 4 -59 8
-59 22 0 32 29 32 91 0 52 -4 72 -21 93 -24 30 -34 33 -43 10z"/>
<path d="M0 4171 l0 -279 45 -6 c85 -13 81 -25 75 225 -3 121 -2 229 2 239 4
12 -2 25 -20 42 -22 21 -86 58 -99 58 -1 0 -3 -125 -3 -279z"/>
<path d="M4250 4240 c0 -5 5 -10 11 -10 5 0 7 5 4 10 -3 6 -8 10 -11 10 -2 0
-4 -4 -4 -10z"/>
<path d="M4355 4031 c-6 -11 9 -23 19 -14 9 9 7 23 -3 23 -6 0 -12 -4 -16 -9z"/>
<path d="M4360 3981 c0 -6 5 -13 10 -16 6 -3 10 1 10 9 0 9 -4 16 -10 16 -5 0
-10 -4 -10 -9z"/>
<path d="M4365 3878 c-11 -43 -2 -113 15 -113 22 0 27 107 6 124 -13 11 -16 9
-21 -11z"/>
<path d="M4240 3821 c-24 -7 -24 -7 9 -14 47 -10 51 -9 51 8 0 16 -19 18 -60
6z"/>
<path d="M4080 3630 c0 -11 5 -20 10 -20 6 0 10 9 10 20 0 11 -4 20 -10 20 -5
0 -10 -9 -10 -20z"/>
<path d="M0 3117 l0 -355 49 13 c27 7 54 16 60 19 6 4 10 118 11 324 0 358 6
334 -80 348 l-40 7 0 -356z"/>
<path d="M4057 3393 c-12 -11 -8 -40 8 -53 13 -10 15 -9 15 11 0 28 -13 52
-23 42z"/>
<path d="M560 3260 c1 -8 8 -26 16 -40 l15 -25 -6 30 c-7 33 -25 59 -25 35z"/>
<path d="M960 3186 c0 -18 7 -39 16 -47 55 -45 70 -151 35 -244 -14 -36 -20
-70 -17 -87 4 -21 2 -28 -9 -28 -20 0 -19 -9 3 -34 11 -12 29 -59 41 -106 13
-47 25 -91 27 -99 3 -9 8 -10 17 -4 6 5 22 10 35 11 56 3 62 43 20 127 -16 31
-19 50 -13 90 4 27 9 81 11 119 3 66 1 74 -47 175 -47 97 -91 161 -111 161 -4
0 -8 -15 -8 -34z"/>
<path d="M683 2898 c3 -9 9 -32 12 -50 4 -18 15 -44 27 -58 16 -20 19 -21 13
-5 -4 11 -9 34 -12 51 -3 16 -14 41 -25 55 -12 14 -18 17 -15 7z"/>
<path d="M4208 2834 c-4 -3 -3 -16 2 -29 5 -13 6 -32 3 -44 -3 -12 0 -28 8
-37 19 -23 27 1 20 60 -6 46 -19 65 -33 50z"/>
<path d="M830 2771 c0 -13 7 -35 14 -49 22 -39 56 -123 56 -136 0 -25 22 -86
30 -86 15 0 11 31 -10 75 -11 22 -19 49 -20 61 0 39 -30 121 -50 139 -19 18
-20 18 -20 -4z"/>
<path d="M910 2755 c0 -10 17 -65 47 -150 8 -22 23 -51 34 -65 l21 -25 -7 30
c-17 77 -95 249 -95 210z"/>
<path d="M743 2728 c19 -77 27 -99 44 -125 26 -40 53 -100 53 -122 0 -10 7
-24 16 -31 12 -11 18 -11 31 2 14 15 12 24 -26 105 -22 50 -41 95 -41 102 0 6
-9 30 -20 51 -14 28 -27 40 -41 40 -17 0 -20 -5 -16 -22z"/>
<path d="M1011 2473 c-12 -14 -19 -28 -17 -30 7 -7 86 37 86 47 0 21 -49 9
-69 -17z"/>
<path d="M18 2333 c-17 -4 -18 -26 -18 -284 0 -153 1 -279 3 -279 16 0 89 45
105 64 16 21 18 33 11 82 -4 32 -6 61 -4 64 2 4 5 85 6 181 l1 174 -44 2 c-23
0 -51 -1 -60 -4z"/>
<path d="M4340 1745 c0 -8 7 -15 15 -15 9 0 12 6 9 15 -4 8 -10 15 -15 15 -5
0 -9 -7 -9 -15z"/>
<path d="M4380 1703 c0 -9 75 -73 85 -73 3 0 -13 18 -36 40 -44 42 -49 45 -49
33z"/>
<path d="M1503 1683 c-3 -10 -13 -26 -21 -36 -14 -16 -14 -21 1 -46 11 -19 15
-40 11 -67 -4 -28 -3 -35 5 -24 11 18 27 190 17 190 -4 0 -9 -8 -13 -17z"/>
<path d="M1375 1632 c-15 -20 -20 -44 -21 -92 0 -40 -7 -77 -17 -97 -19 -36
-20 -43 -9 -43 12 0 55 102 63 150 4 25 11 60 15 78 8 39 -4 41 -31 4z"/>
<path d="M4520 1545 c7 -9 15 -13 17 -11 7 7 -7 26 -19 26 -6 0 -6 -6 2 -15z"/>
<path d="M1215 1450 c-10 -11 -13 -20 -8 -20 13 0 38 29 31 35 -3 3 -13 -4
-23 -15z"/>
<path d="M1462 1443 c-16 -20 -19 -30 -10 -40 6 -8 11 -50 12 -95 1 -46 5 -83
11 -85 7 -2 10 41 10 122 0 69 0 125 -1 125 0 0 -10 -12 -22 -27z"/>
<path d="M1581 1427 c-11 -21 -12 -30 -3 -39 17 -17 24 -5 20 33 l-3 33 -14
-27z"/>
<path d="M38 1323 l-38 -15 0 -109 0 -109 34 0 c18 0 48 5 65 11 27 10 32 15
26 33 -3 11 -9 63 -12 114 -6 102 -8 104 -75 75z"/>
<path d="M1310 1255 c-15 -18 -6 -45 15 -45 10 0 15 10 15 30 0 33 -11 38 -30
15z"/>
<path d="M1194 1236 c-8 -22 3 -33 18 -18 9 9 9 15 0 24 -9 9 -13 7 -18 -6z"/>
<path d="M1180 1180 c0 -5 5 -10 11 -10 5 0 7 5 4 10 -3 6 -8 10 -11 10 -2 0
-4 -4 -4 -10z"/>
<path d="M970 1013 c0 -24 62 -71 101 -77 32 -5 51 -17 79 -48 21 -23 43 -38
49 -34 17 11 14 20 -18 60 -16 21 -31 42 -33 47 -3 10 -140 59 -165 59 -7 0
-13 -3 -13 -7z"/>
<path d="M1380 871 c0 -45 -4 -60 -16 -65 -9 -4 -280 -6 -602 -6 -361 1 -589
-3 -595 -9 -16 -16 2 -31 38 -31 37 0 54 -15 36 -33 -8 -8 -11 -101 -11 -298
l0 -288 54 -35 c92 -62 86 -82 86 293 0 330 0 330 22 345 18 13 54 16 183 16
142 0 164 -2 193 -20 40 -24 42 -57 7 -98 -30 -35 -99 -66 -209 -94 -44 -11
-85 -23 -89 -27 -4 -5 13 -25 38 -46 38 -31 51 -36 73 -30 46 13 106 9 142
-10 59 -29 70 -44 70 -91 0 -90 -74 -131 -255 -143 -94 -6 -98 -7 -75 -20 14
-8 59 -22 100 -31 65 -14 84 -14 140 -3 93 19 166 51 195 85 50 59 22 172 -48
194 -12 3 -40 14 -62 24 -22 9 -48 20 -57 23 -28 10 -21 25 22 47 23 12 59 37
80 57 35 31 40 41 40 78 0 35 -5 48 -25 63 -51 40 -38 42 248 40 l272 -3 5
-140 c5 -153 12 -175 63 -202 48 -26 187 -23 248 6 47 22 80 64 63 80 -15 14
-83 33 -94 26 -5 -3 -10 -15 -10 -25 0 -10 -12 -32 -26 -49 -20 -24 -34 -31
-63 -31 -70 0 -72 6 -69 180 l3 155 160 3 c88 1 164 7 169 12 24 24 -15 32
-159 31 -99 -1 -152 2 -161 10 -8 6 -14 28 -14 48 0 33 -4 39 -38 54 -66 29
-72 25 -72 -42z"/>
<path d="M1984 786 c-9 -24 5 -36 42 -36 37 0 43 -13 19 -44 -12 -16 -15 -68
-15 -292 l0 -272 38 -30 c42 -33 75 -52 91 -52 8 0 11 101 11 323 0 177 4 327
8 333 17 27 56 34 174 34 68 0 138 -4 157 -10 85 -24 110 -105 49 -161 -43
-41 -184 -104 -262 -118 -98 -16 -19 -64 109 -66 63 -1 89 -6 125 -24 25 -13
48 -29 52 -35 4 -6 8 -52 8 -102 l0 -91 38 -30 c51 -41 81 -56 99 -49 23 9 15
210 -10 247 -22 32 -80 65 -148 82 -29 8 -55 19 -56 24 -2 6 16 22 41 37 55
32 123 108 131 147 8 37 -19 86 -63 114 -17 11 -31 24 -32 28 0 4 60 6 133 5
l132 -3 3 -33 c2 -19 -4 -44 -13 -58 -9 -14 -13 -28 -11 -33 3 -5 41 0 83 10
109 26 241 25 294 -2 43 -21 48 -47 8 -40 -13 2 -82 4 -154 5 -113 1 -138 -2
-195 -23 -108 -39 -138 -86 -85 -135 52 -49 262 -66 380 -31 56 16 59 16 107
-5 27 -11 53 -18 58 -15 6 3 10 48 10 100 0 102 -18 163 -60 200 -20 18 -36
20 -181 20 -159 0 -159 0 -159 23 l0 22 273 -2 272 -3 3 -38 c2 -26 -2 -45
-13 -57 -35 -39 8 -42 115 -10 19 5 78 10 130 10 77 0 101 -4 128 -20 17 -11
32 -24 32 -29 0 -5 -53 -7 -126 -3 -130 5 -197 -4 -280 -39 -53 -22 -74 -44
-74 -79 0 -42 44 -69 143 -86 85 -15 221 -7 284 17 20 7 36 6 65 -6 21 -8 50
-15 64 -15 l27 0 -5 114 c-5 123 -14 150 -65 183 -23 15 -51 18 -183 18 -148
0 -155 1 -155 20 0 20 10 20 558 23 494 2 557 0 557 -13 0 -17 -12 -22 -114
-53 l-69 -21 -39 20 c-54 27 -195 37 -280 19 -53 -12 -70 -21 -115 -65 -29
-28 -53 -58 -53 -67 0 -9 22 -41 50 -71 41 -45 62 -59 124 -81 90 -33 117 -30
59 7 -51 32 -93 86 -93 119 0 56 99 108 206 108 78 0 94 -18 48 -55 -23 -19
-26 -25 -16 -38 7 -8 35 -17 62 -21 48 -6 52 -5 87 29 51 49 131 86 201 92 78
7 120 -1 157 -31 29 -24 29 -26 15 -52 -8 -14 -35 -38 -60 -52 -54 -30 -167
-71 -197 -72 -41 0 -35 -20 12 -40 58 -25 71 -25 142 1 64 24 118 69 147 124
20 36 20 37 1 72 -20 36 -96 92 -126 93 -22 0 -45 28 -33 40 5 5 54 11 109 12
92 3 100 5 100 23 0 20 -8 20 -1513 23 -1316 2 -1513 0 -1518 -12z m1239 -251
c27 -11 16 -27 -40 -56 -66 -34 -147 -49 -247 -48 -95 1 -130 9 -134 31 -4 19
68 63 125 78 43 10 268 7 296 -5z m602 7 c60 -11 57 -34 -8 -65 -68 -32 -148
-47 -248 -47 -85 0 -129 12 -129 34 0 21 47 51 105 69 53 16 210 21 280 9z"/>
<path d="M1065 709 c-9 -13 -9 -278 0 -287 10 -11 88 -31 97 -26 4 3 8 74 8
159 0 168 1 165 -65 165 -19 0 -37 -5 -40 -11z"/>
</g>
</svg>
